<?xml version="1.0" standalone="no"?><!DOCTYPE svg PUBLIC "-//W3C//DTD SVG 1.1//EN" "http://www.w3.org/Graphics/SVG/1.1/DTD/svg11.dtd"><svg t="1555558221002" class="icon" style="" viewBox="0 0 1024 1024" version="1.1" xmlns="http://www.w3.org/2000/svg" p-id="2162" xmlns:xlink="http://www.w3.org/1999/xlink" width="200" height="200"><defs><style type="text/css"></style></defs><path d="M0 512a512 512 0 1 0 1024 0A512 512 0 1 0 0 512z" fill="#BFBFBF" p-id="2163"></path><path d="M510.976 1015.808c149.504 0 283.648-67.584 377.856-169.984-9.216-12.288-18.432-24.576-30.72-33.792-51.2-41.984-204.8-108.544-204.8-108.544L553.984 885.76 537.6 840.704l25.6-54.272-54.272-54.272-54.272 54.272 25.6 54.272-16.384 45.056-95.232-181.248s-153.6 67.584-204.8 108.544c-10.24 10.24-19.456 21.504-27.648 35.84 93.184 100.352 226.304 166.912 374.784 166.912zM303.104 417.792c0 90.112 82.944 259.072 207.872 259.072s207.872-166.912 207.872-259.072 0-252.928-207.872-252.928-207.872 163.84-207.872 252.928z" fill="#FFFFFF" p-id="2164"></path></svg>